<svg width="512" height="512" viewBox="0 0 512 512" fill="none" xmlns="http://www.w3.org/2000/svg">
  <rect width="512" height="512" rx="128" fill="#40C4B5"/>
  <path d="M256 128C312 128 368 184 368 240C368 296 312 352 256 352C200 352 144 296 144 240C144 184 200 128 256 128Z" fill="#2A2356"/>
  <path d="M192 208C224 208 256 240 256 272C256 304 224 336 192 336C160 336 128 304 128 272C128 240 160 208 192 208Z" fill="#FFB4A9"/>
  <path d="M320 208C352 208 384 240 384 272C384 304 352 336 320 336C288 336 256 304 256 272C256 240 288 208 320 208Z" fill="#2A2356"/>
  <path d="M256 128C288 128 320 160 320 192C320 224 288 256 256 256C224 256 192 224 192 192C192 160 224 128 256 128Z" fill="#FFB4A9"/>
  <path d="M256 256C288 256 320 288 320 320C320 352 288 384 256 384C224 384 192 352 192 320C192 288 224 256 256 256Z" fill="#FFB4A9"/>
</svg>